<svg width="112" height="116" viewBox="0 0 112 116" fill="none" xmlns="http://www.w3.org/2000/svg">
<path d="M74.6669 101.5V91.8333C74.6669 86.7058 72.7002 81.7883 69.1995 78.1626C65.6989 74.5369 60.9509 72.5 56.0002 72.5H23.3335C18.3828 72.5 13.6349 74.5369 10.1342 78.1626C6.63353 81.7883 4.66687 86.7058 4.66687 91.8333V101.5" stroke="black" stroke-width="2" stroke-linecap="round" stroke-linejoin="round"/>
<path d="M39.6667 53.1667C49.976 53.1667 58.3333 44.5108 58.3333 33.8333C58.3333 23.1558 49.976 14.5 39.6667 14.5C29.3574 14.5 21 23.1558 21 33.8333C21 44.5108 29.3574 53.1667 39.6667 53.1667Z" stroke="black" stroke-width="2" stroke-linecap="round" stroke-linejoin="round"/>
<path d="M93.3331 38.6667V67.6667" stroke="black" stroke-width="2" stroke-linecap="round" stroke-linejoin="round"/>
<path d="M107.333 53.1667H79.3331" stroke="black" stroke-width="2" stroke-linecap="round" stroke-linejoin="round"/>
</svg>
